# xmcd
#
# Track frame offsets: 
#        150
#        13032
#        26263
#        39015
#        52651
#        66684
#        80606
#        92897
#        107028
#        119682
#        131675
#        146349
#        158600
#        169105
#        183006
#        194794
#        207050
#        219692
#        231195
#        242685
#
# Disc length: 3433 seconds
#
# Revision: 0
# Processed by: cddbd v1.5.1PL2 Copyright (c) Steve Scherf et al.
# Submitted via: ExactAudioCopy v0.95b4
#
DISCID=120d6714
DTITLE=Various Artist - Hear My Back Door Slam
DYEAR=2006
DGENRE=Blues
TTITLE0=Muddy Waters - I'm Your Hootchie Cootchie Man
TTITLE1=Big Maceo - Worried Life Blues
TTITLE2=onny Boy Williamson II - Nine Below Zero
TTITLE3=Guitar Slim - The Things That I Used To Do
TTITLE4=Leroy Carr - Midnight Hour Blues
TTITLE5=B B King - Blind Love
TTITLE6=Howlin' Wolf - How Many More Years
TTITLE7=Blind Willie McTell - Talkin' To You Mama
TTITLE8=John Lee Hooker - Huckle Up Baby
TTITLE9=Professor Longhair - Tipitina
TTITLE10=Charley Patton - Moon Going Down
TTITLE11=Lightnin' Hopkins - Bad Things On My Mind
TTITLE12=J B Lenoir - Mama Talk To Your Daughter
TTITLE13=Sony Boy Williamson I - Blue Bird Blues
TTITLE14=T-Bone Walker - Evil Hearted Woman
TTITLE15=Tommy McClennan - I'm Going Don't You Know
TTITLE16=Jimy Reed - High And Lonesome
TTITLE17=Robert Johnson - Me And The Devil Blues
TTITLE18=Elmore James - Strange Kinda Feeling
TTITLE19=Blind Willie Johnson - Dark Was The Night
EXTD=
EXTT0=
EXTT1=
EXTT2=
EXTT3=
EXTT4=
EXTT5=
EXTT6=
EXTT7=
EXTT8=
EXTT9=
EXTT10=
EXTT11=
EXTT12=
EXTT13=
EXTT14=
EXTT15=
EXTT16=
EXTT17=
EXTT18=
EXTT19=
PLAYORDER=
